# xmcd
#
# Track frame offsets: 
#        150
#        20834
#        56091
#        73640
#        97471
#        119256
#        141716
#        158424
#        178765
#        208356
#        228240
#        247649
#        280949
#        303889
#        321941
#
# Disc length: 4545 seconds
#
# Revision: 0
# Processed by: cddbd v1.5.2PL0 Copyright (c) Steve Scherf et al.
# Submitted via: ExactAudioCopy v1.0b2
#
DISCID=e111bf0f
DTITLE=Hoola Bandoola Band - 1971-2011 [CD 2)
DYEAR=2011
DGENRE=Swedish Progg
TTITLE0=Herkules
TTITLE1=Keops Pyramid
TTITLE2=Ingenting Förändras Av Sej Själv
TTITLE3=Juanita
TTITLE4=Bläckfisken
TTITLE5=Huddinge, Huddinge
TTITLE6=En Kungens Man
TTITLE7=Rocksamba
TTITLE8=När Man Jämför
TTITLE9=Filosofen Från Cuenca
TTITLE10=Tiderna Ar Hårda
TTITLE11=Jägaren
TTITLE12=På Egna Vingar
TTITLE13=Den Jag Kunde Va
TTITLE14=Strö All Min Kärlek
EXTD=
EXTT0=
EXTT1=
EXTT2=
EXTT3=
EXTT4=
EXTT5=
EXTT6=
EXTT7=
EXTT8=
EXTT9=
EXTT10=
EXTT11=
EXTT12=
EXTT13=
EXTT14=
PLAYORDER=
